<svg width="90" height="90" viewBox="0 0 90 90" fill="none" xmlns="http://www.w3.org/2000/svg">
<g clip-path="url(#clip0_5_106)">
<path d="M2.61572 58.1113C3.74788 58.2525 4.88004 58.3576 6.0187 58.4135C11.4485 58.6697 15.8568 56.4623 20.9612 55.0925C29.999 52.6684 36.3007 59.1328 44.9935 59.1328C53.6864 59.1328 59.7864 52.6125 69.0259 55.0925C74.1303 56.4623 78.5386 58.6697 83.9684 58.4135C85.1103 58.3609 86.249 58.2525 87.3844 58.1113" stroke="#564137" stroke-width="2" stroke-miterlimit="10"/>
<path d="M7.13818 68.4452C12.067 68.3828 16.2182 66.3791 20.9713 65.1046C30.0091 62.6804 36.3108 69.1449 45.0036 69.1449C53.8689 69.1449 59.7965 62.6246 69.0359 65.1046C73.7858 66.3791 77.937 68.3828 82.8691 68.4452" stroke="#564137" stroke-width="2" stroke-miterlimit="10"/>
<path d="M14.0415 77.2682C16.3156 76.5948 18.5669 75.7637 20.9678 75.1199C30.0056 72.6957 36.3073 79.1602 45.0002 79.1602C53.693 79.1602 59.793 72.6399 69.0325 75.1199C71.4367 75.7637 73.6847 76.5948 75.9588 77.2682" stroke="#564137" stroke-width="2" stroke-miterlimit="10"/>
<path d="M23.8862 84.6359C31.4372 84.0677 37.2737 89.1755 44.9971 89.1755C52.7205 89.1755 58.4593 84.002 66.1111 84.6228" stroke="#564137" stroke-width="2" stroke-miterlimit="10"/>
<path d="M1.09326 50.4741C0.907823 48.8186 0.813477 47.14 0.813477 45.4352C0.813477 20.796 20.597 0.821198 45.0001 0.821198C69.4033 0.821198 89.1868 20.796 89.1868 45.4352C89.1868 47.14 89.0925 48.8219 88.907 50.4741" stroke="#564137" stroke-width="2" stroke-miterlimit="10"/>
</g>
<defs>
<clipPath id="clip0_5_106">
<rect width="90" height="90" fill="white"/>
</clipPath>
</defs>
</svg>
